# xmcd
#
# Track frame offsets:
#	150
#	13875
#	26435
#	37327
#	48182
#	61702
#	71222
#	81200
#	95620
#	105062
#	114242
#	123870
#	134620
#	147650
#
# Disc length: 2099 seconds
#
# Revision: 0
# Processed by: cddbd v1.5.1PL0 Copyright (c) Steve Scherf et al.
# Submitted via: dBpowerAMP V4.0
#
DISCID=bf08310e
DTITLE=canario e passarinho - as melhores cd 01
DYEAR=2004
DGENRE=sertanejo
TTITLE0=o menino da porteira
TTITLE1=pombina branca
TTITLE2=a volta da pombinha
TTITLE3=fazendeiro arruinado
TTITLE4=a missa
TTITLE5=ilusao
TTITLE6=chiquita linda
TTITLE7=esqueca coracao
TTITLE8=cinzas do passado
TTITLE9=barata tonta
TTITLE10=gaiola de ouro
TTITLE11=resposta da gaiola de ouro
TTITLE12=nao toque mais esse disco
TTITLE13=chofer de estrada
EXTD=raizes sertanejas - para quem gosta
EXTT0=
EXTT1=
EXTT2=
EXTT3=
EXTT4=
EXTT5=
EXTT6=
EXTT7=
EXTT8=
EXTT9=
EXTT10=
EXTT11=
EXTT12=
EXTT13=
PLAYORDER=
